HIERARCHY
ROOT Hips
{
  OFFSET 5.72205e-005 65.662 3.42586
  CHANNELS 6 Xposition Yposition Zposition Zrotation Xrotation Yrotation
  JOINT Chest
  {
    OFFSET 0 8.7983 -4.7612
    CHANNELS 3 Zrotation Xrotation Yrotation
    JOINT Chest2
    {
      OFFSET 0 8.0291 0.4195
      CHANNELS 3 Zrotation Xrotation Yrotation
      JOINT Chest3
      {
        OFFSET 0 9.9351 -2.2114
        CHANNELS 3 Zrotation Xrotation Yrotation
        JOINT Neck
        {
          OFFSET 0 22.3885 -0.4656
          CHANNELS 3 Zrotation Xrotation Yrotation
          JOINT Head
          {
            OFFSET -0.0001 12.643 3.4389
            CHANNELS 3 Zrotation Xrotation Yrotation
            End Site
            {
              OFFSET 0.0001 17.6655 0.5274
            }
          }
        }
        JOINT LeftCollar
        {
          OFFSET 2.2603 21.606 7.4023
          CHANNELS 3 Zrotation Xrotation Yrotation
          JOINT LeftShoulder
          {
            OFFSET 13.5163 -1.1332 -5.0146
            CHANNELS 3 Zrotation Xrotation Yrotation
            JOINT LeftElbow
            {
              OFFSET -0.0995 -28.05 -0.2431
              CHANNELS 3 Zrotation Xrotation Yrotation
              JOINT LeftWrist
              {
                OFFSET 0.0679 -23.3996 -0.1402
                CHANNELS 3 Zrotation Xrotation Yrotation
                JOINT LeftFinger1
                {
                  OFFSET 0.7932 -9.069 2.5189
                  CHANNELS 3 Zrotation Xrotation Yrotation
                  JOINT LeftFinger11
                  {
                    OFFSET -0.8272 -3.3923 0.5977
                    CHANNELS 3 Zrotation Xrotation Yrotation
                    JOINT LeftFinger12
                    {
                      OFFSET -0.5649 -2.3158 0.4082
                      CHANNELS 3 Zrotation Xrotation Yrotation
                      End Site
                      {
                        OFFSET -0.4919 -1.6479 0.2673
                      }
                    }
                  }
                }
                JOINT LeftFinger2
                {
                  OFFSET 0.9159 -9.2044 0.2193
                  CHANNELS 3 Zrotation Xrotation Yrotation
                  JOINT LeftFinger21
                  {
                    OFFSET 0.0117 -4.1944 -0.0248
                    CHANNELS 3 Zrotation Xrotation Yrotation
                    JOINT LeftFinger22
                    {
                      OFFSET 0.0071 -2.3249 -0.0142
                      CHANNELS 3 Zrotation Xrotation Yrotation
                      End Site
                      {
                        OFFSET -0.1475 -2.0882 0.0028
                      }
                    }
                  }
                }
                JOINT LeftFinger3
                {
                  OFFSET 0.6113 -8.7231 -2.0637
                  CHANNELS 3 Zrotation Xrotation Yrotation
                  JOINT LeftFinger31
                  {
                    OFFSET -0.1927 -3.8059 -0.2383
                    CHANNELS 3 Zrotation Xrotation Yrotation
                    JOINT LeftFinger32
                    {
                      OFFSET -0.1091 -2.1688 -0.1362
                      CHANNELS 3 Zrotation Xrotation Yrotation
                      End Site
                      {
                        OFFSET -0.2358 -1.9176 -0.0906
                      }
                    }
                  }
                }
                JOINT LeftFinger4
                {
                  OFFSET -0.6151 -8.0947 -3.5641
                  CHANNELS 3 Zrotation Xrotation Yrotation
                  JOINT LeftFinger41
                  {
                    OFFSET -0.4882 -2.341 -0.6462
                    CHANNELS 3 Zrotation Xrotation Yrotation
                    JOINT LeftFinger42
                    {
                      OFFSET -0.3575 -1.7167 -0.4742
                      CHANNELS 3 Zrotation Xrotation Yrotation
                      End Site
                      {
                        OFFSET -0.4187 -1.5237 -0.3496
                      }
                    }
                  }
                }
                JOINT LeftFinger0
                {
                  OFFSET -1.42 -1.8761 1.4223
                  CHANNELS 3 Zrotation Xrotation Yrotation
                  JOINT LeftFinger01
                  {
                    OFFSET -1.1471 -3.4929 2.6334
                    CHANNELS 3 Zrotation Xrotation Yrotation
                    JOINT LeftFinger02
                    {
                      OFFSET -0.823 -2.3 1.6571
                      CHANNELS 3 Zrotation Xrotation Yrotation
                      End Site
                      {
                        OFFSET -0.5822 -1.6914 1.1582
                      }
                    }
                  }
                }
              }
            }
          }
        }
        JOINT RightCollar
        {
          OFFSET -2.2603 21.606 7.4023
          CHANNELS 3 Zrotation Xrotation Yrotation
          JOINT RightShoulder
          {
            OFFSET -13.5187 -1.1334 -5.0155
            CHANNELS 3 Zrotation Xrotation Yrotation
            JOINT RightElbow
            {
              OFFSET 0.0994 -28.0499 -0.2431
              CHANNELS 3 Zrotation Xrotation Yrotation
              JOINT RightWrist
              {
                OFFSET -0.0679 -23.3996 -0.1402
                CHANNELS 3 Zrotation Xrotation Yrotation
                JOINT RightFinger1
                {
                  OFFSET -0.7932 -9.0691 2.5189
                  CHANNELS 3 Zrotation Xrotation Yrotation
                  JOINT RightFinger11
                  {
                    OFFSET 0.8272 -3.3923 0.5977
                    CHANNELS 3 Zrotation Xrotation Yrotation
                    JOINT RightFinger12
                    {
                      OFFSET 0.565 -2.3158 0.4082
                      CHANNELS 3 Zrotation Xrotation Yrotation
                      End Site
                      {
                        OFFSET 0.4919 -1.6479 0.2673
                      }
                    }
                  }
                }
                JOINT RightFinger2
                {
                  OFFSET -0.916 -9.2044 0.2193
                  CHANNELS 3 Zrotation Xrotation Yrotation
                  JOINT RightFinger21
                  {
                    OFFSET -0.0117 -4.1944 -0.0248
                    CHANNELS 3 Zrotation Xrotation Yrotation
                    JOINT RightFinger22
                    {
                      OFFSET -0.0071 -2.3249 -0.0142
                      CHANNELS 3 Zrotation Xrotation Yrotation
                      End Site
                      {
                        OFFSET 0.1475 -2.0882 0.0028
                      }
                    }
                  }
                }
                JOINT RightFinger3
                {
                  OFFSET -0.6113 -8.7231 -2.0637
                  CHANNELS 3 Zrotation Xrotation Yrotation
                  JOINT RightFinger31
                  {
                    OFFSET 0.1927 -3.8059 -0.2383
                    CHANNELS 3 Zrotation Xrotation Yrotation
                    JOINT RightFinger32
                    {
                      OFFSET 0.1091 -2.1688 -0.1362
                      CHANNELS 3 Zrotation Xrotation Yrotation
                      End Site
                      {
                        OFFSET 0.2358 -1.9176 -0.0906
                      }
                    }
                  }
                }
                JOINT RightFinger4
                {
                  OFFSET 0.6151 -8.0947 -3.564
                  CHANNELS 3 Zrotation Xrotation Yrotation
                  JOINT RightFinger41
                  {
                    OFFSET 0.4882 -2.341 -0.6462
                    CHANNELS 3 Zrotation Xrotation Yrotation
                    JOINT RightFinger42
                    {
                      OFFSET 0.3574 -1.7166 -0.4742
                      CHANNELS 3 Zrotation Xrotation Yrotation
                      End Site
                      {
                        OFFSET 0.4187 -1.5237 -0.3496
                      }
                    }
                  }
                }
                JOINT RightFinger0
                {
                  OFFSET 1.4199 -1.8761 1.4221
                  CHANNELS 3 Zrotation Xrotation Yrotation
                  JOINT RightFinger01
                  {
                    OFFSET 1.1472 -3.4929 2.6336
                    CHANNELS 3 Zrotation Xrotation Yrotation
                    JOINT RightFinger02
                    {
                      OFFSET 0.8229 -2.3 1.6571
                      CHANNELS 3 Zrotation Xrotation Yrotation
                      End Site
                      {
                        OFFSET 0.5822 -1.6914 1.1582
                      }
                    }
                  }
                }
              }
            }
          }
        }
      }
    }
  }
  JOINT RightHip
  {
    OFFSET -9.412 3.9771 -0.7758
    CHANNELS 3 Zrotation Xrotation Yrotation
    JOINT RightKnee
    {
      OFFSET -0.7531 -40.938 0
      CHANNELS 3 Zrotation Xrotation Yrotation
      JOINT RightAnkle
      {
        OFFSET 0 -40.1986 0
        CHANNELS 3 Zrotation Xrotation Yrotation
        JOINT RightToe
        {
          OFFSET 0 -4.4182 9.239
          CHANNELS 3 Zrotation Xrotation Yrotation
          End Site
          {
            OFFSET 0 0 6.1981
          }
        }
      }
    }
  }
  JOINT LeftHip
  {
    OFFSET 9.4119 3.9773 -0.7758
    CHANNELS 3 Zrotation Xrotation Yrotation
    JOINT LeftKnee
    {
      OFFSET 0.7532 -40.9383 0
      CHANNELS 3 Zrotation Xrotation Yrotation
      JOINT LeftAnkle
      {
        OFFSET 0 -40.1986 0
        CHANNELS 3 Zrotation Xrotation Yrotation
        JOINT LeftToe
        {
          OFFSET 0 -4.4182 9.239
          CHANNELS 3 Zrotation Xrotation Yrotation
          End Site
          {
            OFFSET 0 0 6.1981
          }
        }
      }
    }
  }
}
MOTION
Frames:	4
Frame Time:	0.0333333
5.72205e-005 65.662 3.42586 0 0 -0 0 0 -0 0 0 -0 0 0 -0 0 0 -0 0 0 -0 0 0 -12.5014 88.1196 14.2451 10.6914 -0.00160068 -0.00239207 0.000740045 -8.4365e-005 7.00714e-005 -9.52055e-007 9.93923e-017 -1.98785e-016 -1.59028e-015 9.93923e-017 -5.96354e-016 -1.59028e-015 -9.93923e-017 -5.96354e-016 -1.59028e-015 9.93923e-017 -1.98785e-016 -1.59028e-015 -0.0128176 0.00232552 8.52707e-005 9.93923e-017 5.96354e-016 -0 9.93923e-017 -1.98785e-016 -1.59028e-015 -0.0160551 0.00299681 0.000857156 -2.48481e-016 0 3.18055e-015 9.93923e-017 -1.98785e-016 -1.59028e-015 -0.0125865 0.0031206 0.00282719 0 1.98785e-016 -0 9.93923e-017 -1.98785e-016 -1.59028e-015 9.93923e-017 -5.96354e-016 -1.59028e-015 -9.93923e-017 -5.96354e-016 -1.59028e-015 -0.865644 0.16582 7.03859 -88.0329 10.2057 -10.5567 0.0015593 -0.00248883 -0.000788628 7.87605e-005 4.10553e-005 1.24965e-005 -3.97569e-016 -7.95139e-016 3.18055e-015 -1.98785e-016 -3.97569e-016 3.18055e-015 -1.98785e-016 0 3.18055e-015 -3.97569e-016 -7.95139e-016 3.18055e-015 0.0129473 0.00231697 -8.70038e-005 9.93923e-017 -7.95139e-016 1.59028e-015 -3.97569e-016 -7.95139e-016 3.18055e-015 0.0163314 0.00303369 -0.000872333 3.97569e-016 7.95139e-016 -3.18055e-015 -3.97569e-016 -7.95139e-016 3.18055e-015 0.0145763 0.00367772 -0.00326275 9.93923e-017 -3.97569e-016 -0 -3.97569e-016 -7.95139e-016 3.18055e-015 -1.98785e-016 -3.97569e-016 3.18055e-015 -1.98785e-016 0 3.18055e-015 3.42482 1.32465 -0.0626183 0.000117508 0.717283 0.000978199 -3.4257 -2.04197 -0.0604716 6.47761e-025 0 -0 -3.42483 1.34017 0.0627307 -0.000193936 0.682302 -0.0013703 3.42574 -2.02253 0.0595886 -8.45714e-024 0 -7.40531e-025 
39.8412 43.0824 18.8389 -179.995 58.9865 -0.00885687 -0.0261179 8.04516 -0.0848084 -0.0406799 16.0904 -0.168402 -0.0406799 16.0904 -0.168402 2.51178e-008 13.9969 8.17184e-007 -1.55877e-007 0.120641 -8.789e-009 -17.4702 -1.22939 -14.4153 45.8259 13.4918 -36.1459 0.455303 -14.9622 -35.8695 1.36243 -1.77869 5.30918 8.3667e-006 -5.01933e-006 -5.63287e-006 -0 0 1.98785e-015 -8.3667e-006 5.01932e-006 5.63288e-006 8.3667e-006 -5.01933e-006 -5.63287e-006 -0.0127804 0.00232444 7.86186e-005 7.95139e-016 9.54166e-015 -2.38542e-015 8.3667e-006 -5.01933e-006 -5.63287e-006 -0.0160346 0.00298104 0.000857277 -0 -3.18055e-015 -0 8.3667e-006 -5.01933e-006 -5.63287e-006 -0.0126345 0.00313379 0.00283986 -7.95139e-016 3.18055e-015 9.93923e-016 8.3667e-006 -5.01933e-006 -5.63287e-006 -0 0 1.98785e-015 -8.3667e-006 5.01932e-006 5.63288e-006 10.1354 -1.75845 8.25607 -38.6269 8.76761 39.3256 1.5673 -19.3104 36.243 -1.55445 4.50802 -3.33361 -9.93129e-032 3.18055e-015 1.78906e-015 -0 0 1.78906e-015 -7.95139e-016 0 1.98785e-016 -9.93129e-032 3.18055e-015 1.78906e-015 0.0129093 0.00231055 -7.79718e-005 -3.8822e-006 1.02941e-006 -5.37879e-006 -9.93129e-032 3.18055e-015 1.78906e-015 0.0163257 0.00303841 -0.000870614 2.20695e-032 -3.18055e-015 3.97569e-016 -9.93129e-032 3.18055e-015 1.78906e-015 0.0145867 0.00368066 -0.00325591 -7.95139e-016 0 3.97569e-016 -9.93129e-032 3.18055e-015 1.78906e-015 -0 0 1.78906e-015 -7.95139e-016 0 1.98785e-016 -55.4512 -70.976 -85.0642 -1.57406 35.0695 42.2015 -20.8724 -2.75438 -5.80901 1.622e-006 -4.97128e-007 1.65391e-007 55.4033 -71.0023 85.0102 1.57841 35.0591 -42.217 20.8552 -2.7404 5.79895 9.34288e-015 -7.95139e-016 -0 
39.839 43.0816 18.8396 -179.995 58.9947 -0.0088583 -0.0265175 8.16662 -0.084656 -0.0413387 16.3333 -0.168053 -0.0413388 16.3334 -0.168053 9.31149e-008 13.8803 5.12712e-007 2.68688e-008 0.120349 -1.04848e-007 -16.8391 -1.5631 -14.6803 45.3689 13.3495 -36.069 0.400774 -14.9346 -35.8694 1.50913 -1.63367 5.59881 -3.51091e-006 -2.11746e-006 7.10671e-006 8.38907e-006 -5.29801e-006 -5.59687e-006 -2.38542e-015 -3.18055e-015 2.18663e-015 -3.51091e-006 -2.11746e-006 7.10671e-006 -0.0128523 0.00231992 8.33697e-005 8.82781e-032 6.36111e-015 -7.95139e-016 -3.51091e-006 -2.11746e-006 7.10671e-006 -0.0160071 0.00298687 0.000843299 7.95139e-016 0 5.96354e-016 -3.51091e-006 -2.11746e-006 7.10671e-006 -0.0126069 0.00312026 0.00282303 -1.65521e-031 -3.18055e-015 -2.98177e-015 -3.51091e-006 -2.11746e-006 7.10671e-006 8.38907e-006 -5.29801e-006 -5.59687e-006 -2.38542e-015 -3.18055e-015 2.18663e-015 9.57444 -2.16437 8.49842 -38.2087 8.72137 39.2921 1.567 -19.3105 36.243 -1.64663 4.65085 -3.61522 -1.59028e-015 -9.54166e-015 -1.39149e-015 -8.3578e-007 -1.51875e-005 4.3747e-006 2.38542e-015 -3.18055e-015 5.96354e-016 -1.59028e-015 -9.54166e-015 -1.39149e-015 0.0130008 0.00231774 -9.56355e-005 -1.59028e-015 -9.54166e-015 -2.18663e-015 -1.59028e-015 -9.54166e-015 -1.39149e-015 0.0163611 0.00302736 -0.000881793 4.94087e-007 -3.49117e-006 3.72454e-006 -1.59028e-015 -9.54166e-015 -1.39149e-015 0.0145896 0.00366528 -0.00326526 -3.97252e-031 9.54166e-015 2.38542e-015 -1.59028e-015 -9.54166e-015 -1.39149e-015 -8.3578e-007 -1.51875e-005 4.3747e-006 2.38542e-015 -3.18055e-015 5.96354e-016 -55.128 -71.2211 -84.7662 -1.57492 35.0952 42.2004 -21.1674 -2.74059 -5.95129 3.34356e-008 -6.90552e-010 -4.24581e-007 55.2219 -71.1567 84.8441 1.57894 35.0764 -42.2161 21.0446 -2.73943 5.89131 7.35503e-015 1.41539e-009 -7.95139e-016 
39.8368 43.0815 18.8416 -179.995 58.9947 -0.00885825 -0.0269184 8.28837 -0.0845007 -0.0420012 16.5768 -0.167696 -0.0420013 16.5769 -0.167697 8.9399e-008 13.7636 9.24508e-007 2.03153e-007 0.120017 3.5539e-009 -16.2089 -1.9 -14.9419 44.876 13.2745 -35.9841 0.414616 -14.9412 -35.8695 1.6551 -1.48778 5.88811 3.97569e-015 0 -9.54166e-015 2.38542e-015 0 -7.55382e-015 3.97569e-015 -3.18055e-015 -1.17283e-014 3.97569e-015 0 -9.54166e-015 -0.0128512 0.00233409 9.29453e-005 7.95139e-016 -2.22639e-014 7.95139e-016 3.97569e-015 0 -9.54166e-015 -0.016 0.00298744 0.000859417 -7.95139e-016 -3.18055e-015 -3.37934e-015 3.97569e-015 0 -9.54166e-015 -0.012582 0.00311255 0.00281989 7.95139e-016 0 9.93923e-016 3.97569e-015 0 -9.54166e-015 2.38542e-015 0 -7.55382e-015 3.97569e-015 -3.18055e-015 -1.17283e-014 9.01463 -2.57297 8.73702 -37.7907 8.6746 39.2591 1.56709 -19.3104 36.243 -1.73814 4.79414 -3.89674 7.95139e-016 -3.18055e-015 5.96354e-016 1.59028e-015 2.91603e-006 -1.98785e-016 1.59028e-015 6.36111e-015 5.96354e-016 7.95139e-016 -3.18055e-015 5.96354e-016 0.0129221 0.0023188 -8.81636e-005 7.95139e-016 -9.54166e-015 -1.78906e-015 7.95139e-016 -3.18055e-015 5.96354e-016 0.016348 0.00302899 -0.000867001 -1.10348e-032 -3.18055e-015 -1.98785e-016 7.95139e-016 -3.18055e-015 5.96354e-016 0.0146124 0.00367479 -0.00326786 -1.59028e-015 -3.18055e-015 3.77691e-015 7.95139e-016 -3.18055e-015 5.96354e-016 1.59028e-015 2.91603e-006 -1.98785e-016 1.59028e-015 6.36111e-015 5.96354e-016 -54.7963 -71.4658 -84.4601 -1.57578 35.121 42.1992 -21.4625 -2.72619 -6.09356 -1.49089e-015 0 7.95139e-016 55.0391 -71.311 84.6766 1.57943 35.0942 -42.2151 21.2341 -2.73825 5.9837 -2.68897e-006 -8.18117e-007 4.07238e-007 
